<?xml version="1.0" encoding="UTF-8" standalone="no"?>
<!DOCTYPE svg PUBLIC "-//W3C//DTD SVG 1.1//EN"
 "http://www.w3.org/Graphics/SVG/1.1/DTD/svg11.dtd">
<!-- Generated by graphviz version 2.40.1 (20161225.0304)
 -->
<!-- Title: snakemake_dag Pages: 1 -->
<svg width="719pt" height="692pt"
 viewBox="0.00 0.00 718.50 692.00" xmlns="http://www.w3.org/2000/svg" xmlns:xlink="http://www.w3.org/1999/xlink">
<g id="graph0" class="graph" transform="scale(1 1) rotate(0) translate(4 688)">
<title>snakemake_dag</title>
<polygon fill="#ffffff" stroke="transparent" points="-4,4 -4,-688 714.5,-688 714.5,4 -4,4"/>
<!-- 0 -->
<g id="node1" class="node">
<title>0</title>
<path fill="none" stroke="#56d8a9" stroke-width="2" d="M622.5,-36C622.5,-36 592.5,-36 592.5,-36 586.5,-36 580.5,-30 580.5,-24 580.5,-24 580.5,-12 580.5,-12 580.5,-6 586.5,0 592.5,0 592.5,0 622.5,0 622.5,0 628.5,0 634.5,-6 634.5,-12 634.5,-12 634.5,-24 634.5,-24 634.5,-30 628.5,-36 622.5,-36"/>
<text text-anchor="middle" x="607.5" y="-15.5" font-family="sans" font-size="10.00" fill="#000000">all</text>
</g>
<!-- 1 -->
<g id="node2" class="node">
<title>1</title>
<path fill="none" stroke="#d87556" stroke-width="2" d="M633.5,-108C633.5,-108 581.5,-108 581.5,-108 575.5,-108 569.5,-102 569.5,-96 569.5,-96 569.5,-84 569.5,-84 569.5,-78 575.5,-72 581.5,-72 581.5,-72 633.5,-72 633.5,-72 639.5,-72 645.5,-78 645.5,-84 645.5,-84 645.5,-96 645.5,-96 645.5,-102 639.5,-108 633.5,-108"/>
<text text-anchor="middle" x="607.5" y="-87.5" font-family="sans" font-size="10.00" fill="#000000">ScorePrimers</text>
</g>
<!-- 1&#45;&gt;0 -->
<g id="edge1" class="edge">
<title>1&#45;&gt;0</title>
<path fill="none" stroke="#c0c0c0" stroke-width="2" d="M607.5,-71.8314C607.5,-64.131 607.5,-54.9743 607.5,-46.4166"/>
<polygon fill="#c0c0c0" stroke="#c0c0c0" stroke-width="2" points="611.0001,-46.4132 607.5,-36.4133 604.0001,-46.4133 611.0001,-46.4132"/>
</g>
<!-- 2 -->
<g id="node3" class="node">
<title>2</title>
<path fill="none" stroke="#afd856" stroke-width="2" d="M698.5,-180C698.5,-180 516.5,-180 516.5,-180 510.5,-180 504.5,-174 504.5,-168 504.5,-168 504.5,-156 504.5,-156 504.5,-150 510.5,-144 516.5,-144 516.5,-144 698.5,-144 698.5,-144 704.5,-144 710.5,-150 710.5,-156 710.5,-156 710.5,-168 710.5,-168 710.5,-174 704.5,-180 698.5,-180"/>
<text text-anchor="middle" x="607.5" y="-159.5" font-family="sans" font-size="10.00" fill="#000000">InSilicoPredictionOfOnAndOffTargetCounts</text>
</g>
<!-- 2&#45;&gt;1 -->
<g id="edge2" class="edge">
<title>2&#45;&gt;1</title>
<path fill="none" stroke="#c0c0c0" stroke-width="2" d="M607.5,-143.8314C607.5,-136.131 607.5,-126.9743 607.5,-118.4166"/>
<polygon fill="#c0c0c0" stroke="#c0c0c0" stroke-width="2" points="611.0001,-118.4132 607.5,-108.4133 604.0001,-118.4133 611.0001,-118.4132"/>
</g>
<!-- 3 -->
<g id="node4" class="node">
<title>3</title>
<path fill="none" stroke="#56c1d8" stroke-width="2" d="M564.5,-252C564.5,-252 430.5,-252 430.5,-252 424.5,-252 418.5,-246 418.5,-240 418.5,-240 418.5,-228 418.5,-228 418.5,-222 424.5,-216 430.5,-216 430.5,-216 564.5,-216 564.5,-216 570.5,-216 576.5,-222 576.5,-228 576.5,-228 576.5,-240 576.5,-240 576.5,-246 570.5,-252 564.5,-252"/>
<text text-anchor="middle" x="497.5" y="-231.5" font-family="sans" font-size="10.00" fill="#000000">CalculateExpressionOfBlastHits</text>
</g>
<!-- 3&#45;&gt;2 -->
<g id="edge3" class="edge">
<title>3&#45;&gt;2</title>
<path fill="none" stroke="#c0c0c0" stroke-width="2" d="M525.2576,-215.8314C539.197,-206.7074 556.2598,-195.539 571.2231,-185.7449"/>
<polygon fill="#c0c0c0" stroke="#c0c0c0" stroke-width="2" points="573.301,-188.5679 579.7512,-180.1628 569.4674,-182.711 573.301,-188.5679"/>
</g>
<!-- 4 -->
<g id="node5" class="node">
<title>4</title>
<path fill="none" stroke="#569ad8" stroke-width="2" d="M471,-684C471,-684 430,-684 430,-684 424,-684 418,-678 418,-672 418,-672 418,-660 418,-660 418,-654 424,-648 430,-648 430,-648 471,-648 471,-648 477,-648 483,-654 483,-660 483,-660 483,-672 483,-672 483,-678 477,-684 471,-684"/>
<text text-anchor="middle" x="450.5" y="-663.5" font-family="sans" font-size="10.00" fill="#000000">FastaIndex</text>
</g>
<!-- 4&#45;&gt;2 -->
<g id="edge4" class="edge">
<title>4&#45;&gt;2</title>
<path fill="none" stroke="#c0c0c0" stroke-width="2" d="M483.2569,-660.4348C545.0099,-647.8653 672.5,-611.1231 672.5,-522 672.5,-522 672.5,-522 672.5,-306 672.5,-261.9445 646.9131,-216.486 627.8463,-188.7272"/>
<polygon fill="#c0c0c0" stroke="#c0c0c0" stroke-width="2" points="630.5592,-186.5017 621.9256,-180.3608 624.8453,-190.5454 630.5592,-186.5017"/>
</g>
<!-- 4&#45;&gt;3 -->
<g id="edge6" class="edge">
<title>4&#45;&gt;3</title>
<path fill="none" stroke="#c0c0c0" stroke-width="2" d="M417.5956,-658.6564C360.3565,-643.7232 248.5,-604.0448 248.5,-522 248.5,-522 248.5,-522 248.5,-378 248.5,-301.8084 336.9462,-265.2862 408.4122,-248.2119"/>
<polygon fill="#c0c0c0" stroke="#c0c0c0" stroke-width="2" points="409.4071,-251.5748 418.3727,-245.9297 407.8436,-244.7516 409.4071,-251.5748"/>
</g>
<!-- 5 -->
<g id="node6" class="node">
<title>5</title>
<path fill="none" stroke="#56d8d0" stroke-width="2" d="M632.5,-324C632.5,-324 582.5,-324 582.5,-324 576.5,-324 570.5,-318 570.5,-312 570.5,-312 570.5,-300 570.5,-300 570.5,-294 576.5,-288 582.5,-288 582.5,-288 632.5,-288 632.5,-288 638.5,-288 644.5,-294 644.5,-300 644.5,-300 644.5,-312 644.5,-312 644.5,-318 638.5,-324 632.5,-324"/>
<text text-anchor="middle" x="607.5" y="-303.5" font-family="sans" font-size="10.00" fill="#000000">SortRNASeq</text>
</g>
<!-- 4&#45;&gt;5 -->
<g id="edge9" class="edge">
<title>4&#45;&gt;5</title>
<path fill="none" stroke="#c0c0c0" stroke-width="2" d="M483.3955,-656.7876C536.3204,-639.7267 634.5,-597.8549 634.5,-522 634.5,-522 634.5,-522 634.5,-450 634.5,-409.2235 623.9119,-363.0472 615.9967,-334.2247"/>
<polygon fill="#c0c0c0" stroke="#c0c0c0" stroke-width="2" points="619.3166,-333.1024 613.226,-324.4332 612.581,-335.0083 619.3166,-333.1024"/>
</g>
<!-- 8 -->
<g id="node9" class="node">
<title>8</title>
<path fill="none" stroke="#567bd8" stroke-width="2" d="M594.5,-396C594.5,-396 412.5,-396 412.5,-396 406.5,-396 400.5,-390 400.5,-384 400.5,-384 400.5,-372 400.5,-372 400.5,-366 406.5,-360 412.5,-360 412.5,-360 594.5,-360 594.5,-360 600.5,-360 606.5,-366 606.5,-372 606.5,-372 606.5,-384 606.5,-384 606.5,-390 600.5,-396 594.5,-396"/>
<text text-anchor="middle" x="503.5" y="-375.5" font-family="sans" font-size="10.00" fill="#000000">FilterPrimersThatOverlapRepetitiveRegions</text>
</g>
<!-- 4&#45;&gt;8 -->
<g id="edge12" class="edge">
<title>4&#45;&gt;8</title>
<path fill="none" stroke="#c0c0c0" stroke-width="2" d="M449.0948,-647.809C446.6067,-607.6665 443.8724,-508.9547 469.5,-432 472.6361,-422.5828 477.7415,-413.1431 483.0537,-404.8501"/>
<polygon fill="#c0c0c0" stroke="#c0c0c0" stroke-width="2" points="486.098,-406.5971 488.8157,-396.3567 480.3052,-402.6672 486.098,-406.5971"/>
</g>
<!-- 12 -->
<g id="node13" class="node">
<title>12</title>
<path fill="none" stroke="#88d856" stroke-width="2" d="M208.5,-612C208.5,-612 26.5,-612 26.5,-612 20.5,-612 14.5,-606 14.5,-600 14.5,-600 14.5,-588 14.5,-588 14.5,-582 20.5,-576 26.5,-576 26.5,-576 208.5,-576 208.5,-576 214.5,-576 220.5,-582 220.5,-588 220.5,-588 220.5,-600 220.5,-600 220.5,-606 214.5,-612 208.5,-612"/>
<text text-anchor="middle" x="117.5" y="-591.5" font-family="sans" font-size="10.00" fill="#000000">CreateTargetWindowsForCandidatePrimers</text>
</g>
<!-- 4&#45;&gt;12 -->
<g id="edge17" class="edge">
<title>4&#45;&gt;12</title>
<path fill="none" stroke="#c0c0c0" stroke-width="2" d="M417.9642,-658.9652C370.4672,-648.6956 280.273,-629.1942 211.0489,-614.2268"/>
<polygon fill="#c0c0c0" stroke="#c0c0c0" stroke-width="2" points="211.5091,-610.7455 200.9953,-612.053 210.0297,-617.5874 211.5091,-610.7455"/>
</g>
<!-- 5&#45;&gt;2 -->
<g id="edge5" class="edge">
<title>5&#45;&gt;2</title>
<path fill="none" stroke="#c0c0c0" stroke-width="2" d="M607.5,-287.7623C607.5,-263.201 607.5,-219.2474 607.5,-190.3541"/>
<polygon fill="#c0c0c0" stroke="#c0c0c0" stroke-width="2" points="611.0001,-190.0896 607.5,-180.0896 604.0001,-190.0897 611.0001,-190.0896"/>
</g>
<!-- 5&#45;&gt;3 -->
<g id="edge8" class="edge">
<title>5&#45;&gt;3</title>
<path fill="none" stroke="#c0c0c0" stroke-width="2" d="M579.7424,-287.8314C565.803,-278.7074 548.7402,-267.539 533.7769,-257.7449"/>
<polygon fill="#c0c0c0" stroke="#c0c0c0" stroke-width="2" points="535.5326,-254.711 525.2488,-252.1628 531.699,-260.5679 535.5326,-254.711"/>
</g>
<!-- 6 -->
<g id="node7" class="node">
<title>6</title>
<path fill="none" stroke="#d89c56" stroke-width="2" d="M540,-324C540,-324 447,-324 447,-324 441,-324 435,-318 435,-312 435,-312 435,-300 435,-300 435,-294 441,-288 447,-288 447,-288 540,-288 540,-288 546,-288 552,-294 552,-300 552,-300 552,-312 552,-312 552,-318 546,-324 540,-324"/>
<text text-anchor="middle" x="493.5" y="-303.5" font-family="sans" font-size="10.00" fill="#000000">BlastCandidatePrimers</text>
</g>
<!-- 6&#45;&gt;3 -->
<g id="edge7" class="edge">
<title>6&#45;&gt;3</title>
<path fill="none" stroke="#c0c0c0" stroke-width="2" d="M494.5094,-287.8314C494.9372,-280.131 495.4459,-270.9743 495.9213,-262.4166"/>
<polygon fill="#c0c0c0" stroke="#c0c0c0" stroke-width="2" points="499.4169,-262.592 496.477,-252.4133 492.4276,-262.2037 499.4169,-262.592"/>
</g>
<!-- 7 -->
<g id="node8" class="node">
<title>7</title>
<path fill="none" stroke="#68d856" stroke-width="2" d="M370,-396C370,-396 289,-396 289,-396 283,-396 277,-390 277,-384 277,-384 277,-372 277,-372 277,-366 283,-360 289,-360 289,-360 370,-360 370,-360 376,-360 382,-366 382,-372 382,-372 382,-384 382,-384 382,-390 376,-396 370,-396"/>
<text text-anchor="middle" x="329.5" y="-375.5" font-family="sans" font-size="10.00" fill="#000000">MakeBlastDatabase</text>
</g>
<!-- 7&#45;&gt;6 -->
<g id="edge10" class="edge">
<title>7&#45;&gt;6</title>
<path fill="none" stroke="#c0c0c0" stroke-width="2" d="M370.8841,-359.8314C392.8182,-350.2018 419.9392,-338.295 443.0931,-328.1299"/>
<polygon fill="#c0c0c0" stroke="#c0c0c0" stroke-width="2" points="444.664,-331.2627 452.4135,-324.038 441.85,-324.8532 444.664,-331.2627"/>
</g>
<!-- 8&#45;&gt;6 -->
<g id="edge11" class="edge">
<title>8&#45;&gt;6</title>
<path fill="none" stroke="#c0c0c0" stroke-width="2" d="M500.9766,-359.8314C499.9071,-352.131 498.6353,-342.9743 497.4468,-334.4166"/>
<polygon fill="#c0c0c0" stroke="#c0c0c0" stroke-width="2" points="500.8999,-333.8367 496.0574,-324.4133 493.9664,-334.7997 500.8999,-333.8367"/>
</g>
<!-- 9 -->
<g id="node10" class="node">
<title>9</title>
<path fill="none" stroke="#d85656" stroke-width="2" d="M399.5,-468C399.5,-468 325.5,-468 325.5,-468 319.5,-468 313.5,-462 313.5,-456 313.5,-456 313.5,-444 313.5,-444 313.5,-438 319.5,-432 325.5,-432 325.5,-432 399.5,-432 399.5,-432 405.5,-432 411.5,-438 411.5,-444 411.5,-444 411.5,-456 411.5,-456 411.5,-462 405.5,-468 399.5,-468"/>
<text text-anchor="middle" x="362.5" y="-447.5" font-family="sans" font-size="10.00" fill="#000000">FilterPrimersByTm</text>
</g>
<!-- 9&#45;&gt;8 -->
<g id="edge13" class="edge">
<title>9&#45;&gt;8</title>
<path fill="none" stroke="#c0c0c0" stroke-width="2" d="M398.0803,-431.8314C416.5325,-422.4089 439.2545,-410.8062 458.873,-400.7883"/>
<polygon fill="#c0c0c0" stroke="#c0c0c0" stroke-width="2" points="460.6168,-403.8278 467.9311,-396.1628 457.4333,-397.5935 460.6168,-403.8278"/>
</g>
<!-- 10 -->
<g id="node11" class="node">
<title>10</title>
<path fill="none" stroke="#d8bc56" stroke-width="2" d="M568.5,-468C568.5,-468 490.5,-468 490.5,-468 484.5,-468 478.5,-462 478.5,-456 478.5,-456 478.5,-444 478.5,-444 478.5,-438 484.5,-432 490.5,-432 490.5,-432 568.5,-432 568.5,-432 574.5,-432 580.5,-438 580.5,-444 580.5,-444 580.5,-456 580.5,-456 580.5,-462 574.5,-468 568.5,-468"/>
<text text-anchor="middle" x="529.5" y="-447.5" font-family="sans" font-size="10.00" fill="#000000">SortRepeatRegions</text>
</g>
<!-- 10&#45;&gt;8 -->
<g id="edge14" class="edge">
<title>10&#45;&gt;8</title>
<path fill="none" stroke="#c0c0c0" stroke-width="2" d="M522.9391,-431.8314C520.0973,-423.9617 516.7063,-414.5712 513.5581,-405.8533"/>
<polygon fill="#c0c0c0" stroke="#c0c0c0" stroke-width="2" points="516.8377,-404.63 510.1492,-396.4133 510.2538,-407.0076 516.8377,-404.63"/>
</g>
<!-- 11 -->
<g id="node12" class="node">
<title>11</title>
<path fill="none" stroke="#56d86b" stroke-width="2" d="M202,-540C202,-540 47,-540 47,-540 41,-540 35,-534 35,-528 35,-528 35,-516 35,-516 35,-510 41,-504 47,-504 47,-504 202,-504 202,-504 208,-504 214,-510 214,-516 214,-516 214,-528 214,-528 214,-534 208,-540 202,-540"/>
<text text-anchor="middle" x="124.5" y="-519.5" font-family="sans" font-size="10.00" fill="#000000">CreateAllCandidatePrimerSequences</text>
</g>
<!-- 11&#45;&gt;9 -->
<g id="edge15" class="edge">
<title>11&#45;&gt;9</title>
<path fill="none" stroke="#c0c0c0" stroke-width="2" d="M184.2502,-503.9243C220.6245,-492.9203 266.9145,-478.9166 303.2055,-467.9378"/>
<polygon fill="#c0c0c0" stroke="#c0c0c0" stroke-width="2" points="304.6016,-471.1722 313.1597,-464.9265 302.5746,-464.4721 304.6016,-471.1722"/>
</g>
<!-- 12&#45;&gt;11 -->
<g id="edge16" class="edge">
<title>12&#45;&gt;11</title>
<path fill="none" stroke="#c0c0c0" stroke-width="2" d="M119.2664,-575.8314C120.015,-568.131 120.9053,-558.9743 121.7373,-550.4166"/>
<polygon fill="#c0c0c0" stroke="#c0c0c0" stroke-width="2" points="125.2256,-550.7051 122.7098,-540.4133 118.2585,-550.0276 125.2256,-550.7051"/>
</g>
<!-- 13 -->
<g id="node14" class="node">
<title>13</title>
<path fill="none" stroke="#ced856" stroke-width="2" d="M95,-684C95,-684 12,-684 12,-684 6,-684 0,-678 0,-672 0,-672 0,-660 0,-660 0,-654 6,-648 12,-648 12,-648 95,-648 95,-648 101,-648 107,-654 107,-660 107,-660 107,-672 107,-672 107,-678 101,-684 95,-684"/>
<text text-anchor="middle" x="53.5" y="-663.5" font-family="sans" font-size="10.00" fill="#000000">SortAnnotatedExons</text>
</g>
<!-- 13&#45;&gt;12 -->
<g id="edge18" class="edge">
<title>13&#45;&gt;12</title>
<path fill="none" stroke="#c0c0c0" stroke-width="2" d="M69.6499,-647.8314C77.1717,-639.3694 86.2565,-629.1489 94.4804,-619.8971"/>
<polygon fill="#c0c0c0" stroke="#c0c0c0" stroke-width="2" points="97.1049,-622.2127 101.1327,-612.4133 91.873,-617.5621 97.1049,-622.2127"/>
</g>
<!-- 14 -->
<g id="node15" class="node">
<title>14</title>
<path fill="none" stroke="#56d88a" stroke-width="2" d="M225.5,-684C225.5,-684 137.5,-684 137.5,-684 131.5,-684 125.5,-678 125.5,-672 125.5,-672 125.5,-660 125.5,-660 125.5,-654 131.5,-648 137.5,-648 137.5,-648 225.5,-648 225.5,-648 231.5,-648 237.5,-654 237.5,-660 237.5,-660 237.5,-672 237.5,-672 237.5,-678 231.5,-684 225.5,-684"/>
<text text-anchor="middle" x="181.5" y="-663.5" font-family="sans" font-size="10.00" fill="#000000">SortTargetSpliceSites</text>
</g>
<!-- 14&#45;&gt;12 -->
<g id="edge19" class="edge">
<title>14&#45;&gt;12</title>
<path fill="none" stroke="#c0c0c0" stroke-width="2" d="M165.3501,-647.8314C157.8283,-639.3694 148.7435,-629.1489 140.5196,-619.8971"/>
<polygon fill="#c0c0c0" stroke="#c0c0c0" stroke-width="2" points="143.127,-617.5621 133.8673,-612.4133 137.8951,-622.2127 143.127,-617.5621"/>
</g>
</g>
</svg>
